<svg width="80" height="80" viewBox="0 0 80 80" fill="none" xmlns="http://www.w3.org/2000/svg">
<g clip-path="url(#clip0_2001_1315)">
<path fill-rule="evenodd" clip-rule="evenodd" d="M33.6781 54.4424L33.9808 54.4161C34.1524 54.3975 34.2047 54.4051 34.3616 54.375C35.1569 54.2138 35.9373 53.7752 36.2472 52.984C36.3295 52.7741 36.3817 52.5979 36.4564 52.3807C36.531 52.1708 36.5909 51.9943 36.6655 51.7771L37.7408 48.7254C37.8828 48.3092 38.0435 47.9045 38.178 47.5032C38.3383 47.027 38.5027 46.4348 38.7228 45.9962C38.8312 45.7752 38.9546 45.3477 39.0479 45.0928C39.1225 44.8866 39.1896 44.6877 39.257 44.4892L41.5981 37.7338C41.8633 36.9315 42.0277 36.504 41.7739 35.698L41.5087 35.0909C41.4302 34.9445 41.251 34.7273 41.1313 34.596L40.2652 33.9285C39.9329 33.7787 39.9291 33.7448 39.4737 33.6063C39.018 33.4675 38.5959 33.3214 38.1367 33.1677L30.9336 30.7196C30.7059 30.6334 30.5005 30.5622 30.2652 30.4872C29.3765 30.1948 28.5513 29.8574 27.6738 29.5612C26.8187 29.2726 25.9486 28.9277 25.1047 28.6128L23.8127 28.1292C23.4729 28.0017 23.163 27.8705 22.8082 27.8143L22.1622 27.7693L21.5834 27.8705C21.1316 28.0054 20.7358 28.2379 20.4109 28.564C20.2354 28.7402 20.0637 28.9689 19.9442 29.1788C19.7873 29.445 19.6828 29.7749 19.5596 30.0598C19.3878 30.4647 19.2235 30.8321 19.0517 31.2407L18.3049 32.9951C18.219 33.2089 18.1518 33.3926 18.0734 33.6063L17.1436 36.0506C17.0017 36.4443 16.8524 36.8677 16.6955 37.2613C16.6358 37.415 16.6768 37.3926 16.6283 37.55L16.1765 38.997C16.1765 38.997 16.1578 39.0533 16.1541 39.0647L16.0159 39.4732C15.762 40.253 15.284 41.6402 15.1123 42.3298C14.9703 42.8847 14.5596 44.3431 14.5558 44.9205C14.5558 44.9467 14.5633 45.0179 14.5633 45.0966C14.5708 45.3777 14.6044 45.6025 14.6716 45.8311C14.8882 46.5436 15.1757 46.9296 15.706 47.3872C16.0084 47.6458 16.3781 47.7919 16.7403 47.9456L19.6455 49.2202C19.8471 49.3066 20.0413 49.3815 20.2354 49.4713C21.4154 49.9962 22.6103 50.4686 23.809 50.9486L27.4311 52.3469C29.1674 53.003 30.915 53.6364 32.6737 54.2286L33.4989 54.4313C33.6296 54.4313 33.5811 54.4462 33.6595 54.4462" fill="#4277D3"/>
<path fill-rule="evenodd" clip-rule="evenodd" d="M60.1455 14.1836C60.1455 14.521 60.3395 15.6007 60.4145 15.9643C60.6683 17.2389 60.5713 17.76 60.6983 18.6335L60.7468 19.3083C60.754 19.4395 60.7691 19.417 60.7767 19.5482C60.7953 19.8856 60.7691 20.2118 60.8028 20.5192C60.8476 20.9353 60.7839 22.8735 60.7767 23.4095L60.6346 25.8276C60.6123 25.985 60.6161 26.165 60.5972 26.3037C60.3622 28.3093 60.2239 29.7001 59.8356 31.6908C59.6189 32.8079 59.4211 34 59.1597 35.1134C58.8945 36.2305 58.6107 36.8604 59.085 37.9813C59.2233 38.3077 59.4359 38.585 59.6674 38.8436C60.2425 39.4735 60.7729 39.5485 61.4712 39.8109L63.5584 40.5192C65.1978 41.0631 68.2709 42.1764 69.7572 42.7687C70.3695 43.0125 71.2284 43.3123 71.7698 43.5523C72.0573 43.6797 73.5099 44.3358 73.8123 44.3358C74.6113 44.3358 74.9849 43.5074 75.1789 42.8436C75.2274 42.6713 75.2535 42.4313 75.2835 42.2552C75.3918 41.6104 75.7317 39.7809 75.7354 39.2111L76.0041 35.2898C76.0041 34.5436 75.9669 33.8615 75.9446 33.0852C75.9408 32.7067 75.851 31.8182 75.851 31.4584C75.851 30.8773 75.4255 28.2531 75.2986 27.4583C75.2463 27.1322 75.2164 26.7498 75.1342 26.4761L74.4173 23.7882C74.3389 23.4808 74.2643 23.1996 74.1821 22.8772C74.0961 22.5323 73.8683 21.97 73.7263 21.6138C73.6668 21.4676 73.6145 21.3477 73.566 21.2052C73.2 20.1893 72.4271 18.7385 71.4784 18.1724L70.7616 17.745C70.4441 17.5351 70.0148 17.3214 69.6712 17.1489C69.5329 17.0777 69.4283 17.029 69.2904 16.9578C68.8274 16.7253 68.2633 16.3767 67.7893 16.1705L65.8737 15.2558C65.0485 14.8471 62.778 13.8837 61.8595 13.5538C61.4299 13.4001 60.7877 13.1302 60.3509 13.5425C60.2054 13.6812 60.1342 13.8949 60.1342 14.1686L60.1455 14.1836Z" fill="#4277D3"/>
<path fill-rule="evenodd" clip-rule="evenodd" d="M44.5263 32.4253C44.5263 32.8076 44.5414 32.984 44.6945 33.3439C44.8586 33.73 45.1014 34.0373 45.4038 34.3184L45.6129 34.4721C45.658 34.5021 45.6614 34.4983 45.7102 34.5284C46.005 34.701 46.0387 34.7459 46.3972 34.8658C46.9238 35.0419 47.4091 35.1883 47.943 35.3644L53.3575 37.1377C53.9102 37.3138 55.2655 37.8274 55.766 37.8274C56.4044 37.8274 56.778 37.7486 57.297 37.3439L57.6816 36.9126C57.9058 36.5904 57.9317 36.4367 58.0328 36.0278C58.4958 34.1685 59.2387 30.5546 59.4665 28.6615C59.5972 27.5705 59.8249 26.0822 59.8809 25.0063C59.8885 24.8714 59.9109 24.8639 59.9109 24.7064L59.9969 23.2256C60.0041 23.1206 59.9931 23.0044 59.9969 22.8957C60.0302 22.4871 60.12 20.8863 60.023 20.5152C59.8586 19.8929 59.754 19.6192 59.2724 19.0981L59.2126 19.0381C58.5742 18.3708 58.0961 18.3221 57.2485 17.9922C57.0246 17.906 56.8041 17.8348 56.5802 17.756C56.3298 17.6698 56.1358 17.5985 55.8891 17.5161C54.9707 17.2124 54.1043 16.8825 53.1484 16.5901C52.6891 16.4477 52.211 16.2977 51.7594 16.144L50.7065 15.8141C50.5159 15.7841 50.4189 15.7504 50.2583 15.7504C49.7093 15.7504 49.3285 15.8966 48.9849 16.1927C48.8542 16.3052 48.7348 16.4477 48.675 16.6051C48.5704 16.8675 48.4734 17.6286 48.3798 18.0597L47.5846 21.4861C47.3978 22.2359 47.2038 22.9857 47.0208 23.7242L46.4047 25.9098C46.0724 27.0532 45.8296 28.0054 45.4488 29.1451C45.3928 29.31 45.3291 29.4975 45.2769 29.6662L44.6233 31.8144L44.5225 32.4367L44.5263 32.4253Z" fill="#4277D3"/>
<path fill-rule="evenodd" clip-rule="evenodd" d="M20.5525 59.661C20.5525 60.3734 20.8101 60.8421 21.2358 61.3556L21.5495 61.6743C22.2889 62.3491 23.1402 62.6078 24.0626 62.9787C25.2276 63.4511 26.5457 63.9048 27.722 64.3696L29.604 65.0444C29.8131 65.1156 30.0782 65.1757 30.2537 65.1905C31.0901 65.2768 31.8145 65.1045 32.3521 64.4484L32.4306 64.3172C32.4756 64.2384 32.468 64.2723 32.509 64.1821C32.5502 64.0923 32.5764 63.9798 32.6101 63.8634L32.9011 62.8588C32.9795 62.5701 33.2 62.0304 33.3232 61.5918C33.5247 60.8645 33.7975 60.0623 34.0328 59.3499C34.0737 59.23 34.1036 59.1624 34.1446 59.0425C34.3351 58.4765 34.5143 58.184 34.5143 57.6066C34.5143 57.0969 34.3014 56.6546 34.0998 56.3358C33.8422 55.9235 33.5994 55.736 33.2523 55.4659C32.9272 55.2111 32.5351 55.095 32.091 54.9413L29.589 54.0452C28.5584 53.7002 26.893 53.0817 25.8363 52.658C25.4479 52.5006 25.0222 52.3282 24.6264 52.1821C24.3986 52.0996 24.2231 52.0395 23.9617 52.0057C23.2709 51.9159 22.498 52.0996 22.02 52.6021L21.9379 52.6995C21.852 52.8082 21.7325 52.9581 21.6877 53.0817C21.5421 53.4868 21.5234 53.7265 21.4337 54.124L20.952 56.6283C20.8438 57.2019 20.545 59.0536 20.545 59.6572L20.5525 59.661Z" fill="#4277D3"/>
<path fill-rule="evenodd" clip-rule="evenodd" d="M44.4624 24.8565C44.9405 24.8565 45.3061 24.6916 45.5865 24.4779C45.9074 24.2342 46.0495 23.9118 46.1502 23.5069C46.3518 22.7122 46.5723 21.8762 46.7701 21.0814C46.8746 20.6578 46.983 20.3166 47.0838 19.8855C47.177 19.4807 47.274 19.0383 47.3713 18.6372C47.5877 17.7674 47.6775 17.2801 47.8454 16.4291C47.909 16.1029 47.9798 16.013 47.812 15.5556C47.6476 15.117 47.2217 14.7571 46.8073 14.5734L45.3027 14.0935C43.8573 13.6474 42.1808 13.1601 40.7581 12.684C40.0935 12.4628 39.3953 12.2641 38.7232 12.0729C38.1068 11.9005 37.2778 12.1216 36.9269 12.7327L35.1046 16.5715C35.0636 16.6615 35.045 16.7253 35.0038 16.804C34.9329 16.9502 34.8658 17.1114 34.7947 17.2576L33.555 19.9942C33.331 20.744 33.6747 21.3438 34.343 21.6925C34.4775 21.7637 34.6791 21.82 34.8284 21.8687C35 21.9249 35.1458 21.9737 35.325 22.0336C35.6759 22.1499 35.9858 22.2548 36.3408 22.371C36.6841 22.4872 37.0091 22.5735 37.3452 22.6897L40.3474 23.6532C41.0047 23.8743 41.6917 24.0618 42.36 24.2867C42.6885 24.3954 43.0249 24.4891 43.3682 24.6016C43.7005 24.7141 44.1187 24.8528 44.4699 24.8528L44.4624 24.8565Z" fill="#4277D3"/>
<path fill-rule="evenodd" clip-rule="evenodd" d="M20.2536 64.6957C20.2498 65.378 20.332 66.4503 20.3992 67.0836C20.4253 67.3537 20.4403 67.5523 20.4776 67.8185C20.5822 68.5872 20.5486 68.4784 20.7241 69.262C20.7801 69.513 20.8137 69.7078 20.8697 69.9592C21.105 71.0277 21.1796 70.9676 21.4709 71.8599C21.5381 72.0699 21.6203 72.2947 21.6949 72.4784L22.3148 73.5469C22.4418 73.7568 22.8301 74.4617 22.9533 74.5929L23.7487 75.4511C24.6934 76.4636 24.193 76.0809 25.5672 77.0033C25.6568 77.0631 25.7278 77.1121 25.8211 77.1719C26.3514 77.5282 27.031 77.6857 27.5426 77.9478C27.8376 78.098 27.8413 78.068 28.14 78.1916L28.3715 78.2628C28.5657 78.3228 28.267 78.2179 28.4163 78.2779L28.7673 78.4092C28.9018 78.4541 28.9914 78.4354 29.1183 78.4803C29.4507 78.6002 29.6224 78.6191 29.7718 78.6678C29.8913 78.7089 29.9809 78.7203 30.1004 78.7576C30.3543 78.8402 31.6873 79.1102 31.8554 79.1102C31.8107 78.9862 31.4858 78.8139 31.37 78.7241C31.2281 78.6153 31.0974 78.3867 30.9891 78.2292C30.9294 78.1391 30.8659 78.0756 30.8136 77.9817C30.7651 77.8919 30.724 77.753 30.6829 77.6594C30.4402 77.1121 30.4738 76.7295 30.3991 76.1973C30.3618 75.9387 30.3357 75.6648 30.3506 75.3689L30.3805 74.5252C30.3805 74.1992 30.4402 74.0193 30.485 73.7268C30.5597 73.1943 30.597 72.6846 30.6568 72.1486C30.7128 71.631 30.7912 71.1026 30.8659 70.5777L31.2206 69.1867C31.2767 68.9543 31.3177 68.6884 31.3625 68.456C31.4746 67.8824 31.7061 67.5111 31.2505 66.8664C30.6867 66.0677 30.1228 65.8915 29.264 65.6028L22.2252 62.8961C22.0907 62.8436 21.9563 62.8063 21.8032 62.7763C21.3701 62.69 20.907 62.7314 20.5747 63.0239L20.4403 63.1586C20.3693 63.2411 20.3843 63.2187 20.3357 63.3274C20.3059 63.391 20.2909 63.4286 20.2723 63.5374C20.261 63.5937 20.2536 63.6911 20.2536 63.7885V64.6957Z" fill="#4277D3"/>
<path fill-rule="evenodd" clip-rule="evenodd" d="M78.9465 48.7444C78.9465 48.5606 78.5732 48.0509 78.394 47.9121C78.252 47.8033 78.1436 47.7211 78.0019 47.6123C77.7257 47.3948 77.4753 47.2073 77.1616 47.0387C76.8854 46.8889 75.9965 46.3039 75.7912 46.3039H75.6419C75.1528 46.3039 74.7383 46.9862 74.5666 47.3685C73.943 50.6112 71.4932 56.4784 67.651 62.5591C67.5351 62.7352 67.4343 62.9413 67.3707 63.1513C67.2813 63.4476 67.1843 63.9197 67.4343 64.1673C67.5427 64.276 68.857 64.6172 69.0885 64.677C69.32 64.7371 70.2126 64.9809 70.4252 65.0858C70.6419 65.1681 70.8847 65.2806 71.3701 64.6359C73.6142 61.8843 76.7062 55.8934 78.028 52.2084C78.155 51.8261 78.9465 49.1232 78.9465 48.7481V48.7444Z" fill="#4277D3"/>
<path fill-rule="evenodd" clip-rule="evenodd" d="M30.9449 74.739C30.9449 75.2525 31.7776 75.7474 32.2221 75.9273C33.092 76.2833 36.1802 76.9995 37.1509 77.2244C37.8567 77.3894 38.7789 77.5393 39.3839 77.0893C39.5109 76.9957 39.6192 76.8307 39.72 76.7032L40.3099 75.8485C40.8888 74.979 41.5087 74.1429 42.0463 73.2468C42.1436 73.0821 42.2183 72.9581 42.3153 72.7934C42.5021 72.4822 42.6775 72.2046 42.8643 71.8972C43.1367 71.44 43.6857 70.7614 43.1181 70.1764C42.9874 70.0417 42.8343 69.9105 42.6699 69.8128C42.0838 69.4606 40.8665 69.2319 40.2016 69.0368L37.6888 68.302C37.2069 68.1635 34.9928 67.4549 34.5745 67.3575C33.835 67.1848 32.9764 67.2373 32.4869 67.8109C32.4274 67.8824 32.3937 67.9235 32.3528 68.0098C32.3191 68.0847 32.2706 68.1635 32.2444 68.2308C32.1846 68.3845 32.1547 68.5572 32.1061 68.7257C32.0501 68.9094 32.0391 69.0783 31.983 69.2655C31.8822 69.618 31.8148 69.933 31.714 70.289C31.4341 71.2787 31.4564 71.4887 31.3183 72.4857C31.2922 72.6846 31.2698 72.8832 31.2511 73.052C31.21 73.453 30.9449 74.5591 30.9449 74.7352V74.739Z" fill="#4277D3"/>
<path fill-rule="evenodd" clip-rule="evenodd" d="M34.4328 29.9852C34.4328 30.2664 34.5487 30.5813 34.7203 30.7837C34.7241 30.7875 34.7317 30.795 34.7354 30.7987C35.0787 31.1999 35.2655 31.2298 35.7622 31.3985L38.8353 32.4145C39.0221 32.4781 39.1638 32.5271 39.3543 32.5869C39.5373 32.647 39.7128 32.6957 39.881 32.7519C40.4148 32.9319 41.5499 33.3594 42.069 33.3594C42.2595 33.3594 42.4202 33.3366 42.5546 33.273C43.4132 32.868 43.3461 32.5983 43.7084 31.5073C44.1414 30.2027 44.5373 28.8343 44.9704 27.526C45.0564 27.2711 45.1011 27.2298 45.1011 26.9636C45.1011 26.4463 44.7128 25.944 44.3619 25.7453C43.9959 25.5428 42.3417 25.048 41.9011 24.9018L38.3947 23.7771C37.8233 23.5897 37.1402 23.6871 36.748 24.0958L36.7181 24.1258C36.6211 24.2345 36.468 24.5269 36.412 24.6656C36.1767 25.2617 35.949 25.809 35.7137 26.4051C35.594 26.705 35.486 26.9787 35.3701 27.2673C35.2542 27.556 35.1534 27.8521 35.0416 28.1408C34.9295 28.4295 34.8249 28.7256 34.7128 29.0143C34.6158 29.2617 34.4441 29.6516 34.4441 29.9777L34.4328 29.9852Z" fill="#4277D3"/>
<path fill-rule="evenodd" clip-rule="evenodd" d="M32.1181 30.0751C32.7528 30.0751 33.3502 29.8052 33.6939 29.3029C33.7499 29.2242 33.761 29.2391 33.8098 29.1492C33.8469 29.0817 33.8693 29.0105 33.8992 28.9355L35.5981 24.6693C35.8819 23.9757 35.6504 23.3534 35.1203 22.8661C35.1165 22.8623 35.109 22.8548 35.1052 22.8511C35.1017 22.8473 35.0942 22.8398 35.0904 22.8361C35.0866 22.8323 35.0794 22.8249 35.0756 22.8211C35.0419 22.7948 35.0343 22.7911 35.0044 22.7686C34.5937 22.4912 32.988 22.0301 32.5065 21.8689C32.2712 21.7902 32.0806 21.7152 31.8381 21.6365C31.5953 21.554 31.4049 21.479 31.1696 21.404C30.2398 21.0966 29.5042 20.688 28.5781 21.2053L28.1898 21.509C27.9321 21.7789 27.8015 21.9888 27.6558 22.33C27.5662 22.5437 27.4542 22.7236 27.3571 22.9336C27.3011 23.0535 27.2749 23.1285 27.2189 23.2447C27.1629 23.3572 27.1256 23.4322 27.0695 23.5446C26.7372 24.2157 25.9829 25.764 25.8037 26.315C25.5423 27.1173 25.9232 27.987 26.7522 28.2569C26.9799 28.3319 27.1629 28.4032 27.3981 28.4819L29.3959 29.1904C29.8627 29.3441 31.6775 30.0676 32.1257 30.0676L32.1181 30.0751Z" fill="#4277D3"/>
<path fill-rule="evenodd" clip-rule="evenodd" d="M39.9594 77.273C39.9594 77.5282 40.0863 77.6218 40.2882 77.7568C40.4784 77.8843 40.5754 77.9216 40.852 77.9741C41.2589 78.0528 41.6882 78.1467 42.1326 78.2255C42.5846 78.308 42.9805 78.3791 43.4283 78.4617L44.8847 78.6002C45.9861 78.6002 46.5575 78.1543 47.3792 77.607C47.9206 77.2433 48.126 77.1308 48.6674 76.7295L49.4104 76.1486C49.5858 76.0174 49.7392 75.8972 49.9033 75.7698C50.1984 75.545 50.7997 75.0387 51.0684 74.7652C51.1619 74.6716 51.2176 74.6378 51.3112 74.5553C51.4643 74.4127 51.595 74.2666 51.7443 74.1167L52.1962 73.6968C52.2709 73.6218 52.3304 73.5545 52.4054 73.4868C52.4576 73.4381 52.4838 73.4305 52.5209 73.3932C53.0699 72.8908 53.137 72.141 52.3008 71.9497C51.9159 71.8599 51.5798 71.7923 51.1767 71.7173C50.7883 71.65 50.4337 71.5712 50.0639 71.4773C49.0072 71.2076 47.7191 71.0014 46.7332 70.7165C45.9452 70.4914 45.1947 70.604 44.5411 70.9338C44.3956 71.0087 44.2724 71.1026 44.1528 71.2076L44.0743 71.2787C43.9065 71.4549 43.0775 72.8196 42.7937 73.2468L41.9572 74.4579C41.8526 74.6002 41.7742 74.7314 41.6734 74.8664C41.2252 75.4738 41.0872 75.7587 40.5307 76.4636C40.4261 76.5948 40.3291 76.7146 40.2208 76.8458C40.1461 76.9432 39.9556 77.1383 39.9556 77.273H39.9594Z" fill="#4277D3"/>
<path fill-rule="evenodd" clip-rule="evenodd" d="M76.1543 31.312L76.2775 34.3523C76.3298 35.1282 76.326 35.5295 76.3036 36.2868L76.1805 38.1537C76.1729 38.2625 76.1619 38.4686 76.143 38.5998C76.0983 38.9296 76.0721 39.7018 76.0236 39.9867L75.5978 42.5474C75.4671 43.3382 75.4 44.3655 75.7622 45.0928C75.9751 45.5203 76.3373 45.6326 76.8787 45.9627C76.9871 46.0262 77.0728 46.0749 77.1811 46.1388C77.297 46.21 77.3902 46.27 77.5024 46.3298C77.8161 46.4987 78.5068 47.1734 78.6747 47.1734C78.8576 47.1734 79.0482 46.3975 79.1005 46.1837C79.1902 45.8201 79.2872 45.3853 79.3506 44.9916C79.5597 43.717 79.7241 42.4085 79.754 41.1115C79.9109 39.0795 79.7912 37.7113 79.6942 35.7132C79.6718 35.2294 79.418 33.6664 79.3209 33.224C79.2872 33.07 79.2236 32.7741 79.1713 32.6504C79.1304 32.5527 78.9361 32.3241 78.8614 32.2378C78.5515 31.8406 78.4246 31.7319 77.8384 31.1208C77.5918 30.8996 76.8189 30.2023 76.5502 30.266C76.2104 30.341 76.1468 31.0533 76.1468 31.312H76.1543Z" fill="#4277D3"/>
<path fill-rule="evenodd" clip-rule="evenodd" d="M13.1632 53.5089C13.1632 53.9851 13.4619 54.48 13.7718 54.7687L14.1341 55.0387C14.8771 55.4058 15.3887 55.7097 16.199 56.0734L18.3797 57.0479C18.8801 57.2803 19.4962 57.6139 19.9742 57.0928C20.146 56.9056 20.146 56.7143 20.1982 56.4145L20.7584 53.3591C20.8293 52.9954 21.0608 52.0844 21.0608 51.7322C21.0608 51.2183 20.6949 50.6523 20.2431 50.4123C20.0078 50.2849 19.7427 50.1989 19.4888 50.0863L17.7972 49.3442C17.7263 49.3104 17.6889 49.2879 17.6142 49.2541L15.2132 48.167C14.8435 47.9946 14.2535 47.7357 13.9063 48.2906L13.8465 48.4104C13.6972 48.7181 13.6598 49.224 13.6001 49.6101L13.3798 51.0198C13.3014 51.6234 13.1594 52.9692 13.1594 53.5127L13.1632 53.5089Z" fill="#4277D3"/>
<path fill-rule="evenodd" clip-rule="evenodd" d="M24.5781 14.9371C24.2943 14.9371 24.1561 14.9296 23.8836 15.0533C23.4989 15.2295 23.2674 15.4807 23.0359 15.8293L21.322 18.4535C21.1726 18.6822 21.0531 18.8959 20.9075 19.1246C20.4668 19.8069 19.8246 20.6541 20.4967 21.3289C20.5789 21.4114 20.5229 21.3814 20.661 21.4376L25.2502 23.1321C25.8253 23.3233 26.3929 23.0234 26.7663 22.6223C26.9567 22.4198 28.2973 19.6119 28.6408 19.0459L29.2084 17.9549C29.5071 17.4413 29.5557 16.7928 29.0478 16.4854C28.7603 16.3129 26.5833 15.6006 26.2323 15.4844L24.5856 14.9371H24.5781Z" fill="#4277D3"/>
<path fill-rule="evenodd" clip-rule="evenodd" d="M54.9484 2.90317C55.6243 3.26305 56.8079 3.88161 57.4391 4.35399L59.6869 6.07845L61.1619 7.58549C61.92 8.34653 61.9238 8.37278 62.4913 9.235L63.7197 10.9595C64.0743 11.4431 64.1865 11.7542 64.4592 12.2078L65.1276 13.5275L65.5345 14.1123C65.6016 14.1835 65.7061 14.3072 65.766 14.3597C65.8183 14.4047 65.8406 14.4159 65.8929 14.4722L66.2702 14.8471C66.7928 15.2707 67.4164 15.4319 67.8907 15.7243C68.0961 15.8517 68.3203 15.9492 68.5367 16.0692C69.1417 16.4103 69.9669 16.7965 70.4636 17.1226L71.3858 17.6774C71.4791 17.7337 71.6063 17.8311 71.7443 17.8311C72.1663 17.8311 71.2476 16.4066 71.0611 16.0729C70.9975 15.9605 70.9414 15.8517 70.8781 15.743C70.8145 15.6418 70.7622 15.5443 70.7027 15.4356L68.6189 12.5528C68.268 12.0541 68.0661 11.9042 67.7077 11.4768L65.7811 9.42995L63.3128 7.38681C62.7452 6.90321 62.6929 6.9182 62.1553 6.55832L60.8035 5.68484C60.7361 5.64357 60.7099 5.6136 60.6466 5.57236L60.023 5.20496C59.3209 4.78134 58.4882 4.35023 57.7562 3.98283L56.7669 3.49923C56.64 3.43551 56.5465 3.40177 56.4158 3.33802C56.1805 3.22558 55.9679 3.13935 55.725 3.03438C55.5644 2.9669 55.1461 2.75696 54.982 2.75321C54.9745 2.83569 54.9669 2.83569 54.9521 2.90317H54.9484Z" fill="#4277D3"/>
<path fill-rule="evenodd" clip-rule="evenodd" d="M59.4847 72.4446C59.4847 72.7108 59.9065 72.696 60.2425 72.7371L61.1537 72.8534C61.2769 72.8421 61.4413 72.7633 61.5235 72.7146C62.005 72.4297 62.0535 72.3921 62.4832 72.0474C62.5839 71.9687 62.6624 71.901 62.7632 71.8185L63.932 70.8813C64.182 70.6789 65.0784 69.7006 65.3918 69.4232L66.8929 67.976C67.0872 67.7812 67.2142 67.6386 67.3896 67.4213C67.7594 66.96 68.7005 65.9927 68.7005 65.513C68.7005 65.2806 68.3383 65.2655 67.9609 65.1681C67.6624 65.0931 67.3786 65.0258 67.1058 64.9432C66.5084 64.7633 66.2844 64.9919 65.8214 65.367C65.4816 65.6443 65.1865 66.019 64.8954 66.3677C64.3764 66.9862 63.6406 67.8337 63.1553 68.4522C62.8454 68.8496 61.6466 70.1205 61.2995 70.4202L60.463 71.2376C60.2463 71.4549 59.481 72.1262 59.481 72.4522L59.4847 72.4446Z" fill="#4277D3"/>
<path fill-rule="evenodd" clip-rule="evenodd" d="M73.3317 19.732C73.3317 20.5605 74.1682 21.8688 74.4072 22.7536L75.3518 26.27C75.4639 26.7124 75.4564 26.6262 75.52 27.0948C75.5424 27.2672 75.5685 27.3609 75.6019 27.5221C75.7924 28.3769 76.1959 29.1979 76.8567 29.734L77.9581 30.6187C78.0517 30.6937 78.1896 30.8136 78.2532 30.6449C78.4063 30.2326 77.7789 27.9533 77.652 27.3384C77.5625 26.9148 77.3383 26.2475 77.1814 25.8201C76.8529 24.9054 76.3899 23.4059 75.9754 22.5661C75.9156 22.4462 75.8523 22.3487 75.7962 22.2362L75.2435 21.314C74.9559 20.9204 74.4221 20.2831 74.0561 20.0057C73.9776 19.9457 73.3354 19.3646 73.3354 19.7357L73.3317 19.732Z" fill="#4277D3"/>
<path fill-rule="evenodd" clip-rule="evenodd" d="M17.0988 57.1266C16.9532 57.1266 16.8375 57.1156 16.7217 57.2019C16.5126 57.3628 16.4977 57.7116 16.4977 57.9703C16.4977 58.6188 16.1392 59.631 17.3266 60.1221L17.9502 60.3997C18.2452 60.542 18.992 60.9056 19.2534 60.887C19.4999 60.8683 19.6941 60.7371 19.709 60.4708C19.7351 60.092 19.8808 59.0726 19.8397 58.8626C19.6941 58.1502 18.992 57.8767 18.3908 57.6329C18.1892 57.5504 17.9913 57.4454 17.7672 57.3518C17.5955 57.2806 17.3042 57.1232 17.0951 57.1232L17.0988 57.1266Z" fill="#4277D3"/>
<path fill-rule="evenodd" clip-rule="evenodd" d="M54.4658 72.4149C54.1521 72.4149 53.7824 72.6021 53.6032 72.7557C53.5433 72.8082 53.5099 72.8496 53.4539 72.9059C53.383 72.9733 53.3569 72.9809 53.2895 73.0406L51.7735 74.5028C51.3776 74.9002 50.9332 75.2487 50.4926 75.5975C50.3843 75.6838 49.7758 76.0961 50.3581 76.1787C51.4 76.3285 51.3477 76.3848 52.1581 75.8485C52.2813 75.7698 52.3858 75.6876 52.5128 75.6013C53.0507 75.2376 53.7786 74.7352 54.223 74.3004L55.4854 73.187C56.1723 72.5496 55.5339 72.5758 54.9959 72.486C54.8129 72.456 54.6598 72.4073 54.4734 72.4073L54.4658 72.4149Z" fill="#4277D3"/>
<path fill-rule="evenodd" clip-rule="evenodd" d="M19.142 64.1821C19.7208 64.1821 19.5938 63.796 19.5938 62.9151C19.5938 62.4541 19.7133 62.1726 19.198 61.6854C18.9814 61.483 18.4026 61.2506 18.0852 61.1156C17.8873 61.0292 17.7044 60.9505 17.5027 60.8569C17.3272 60.7744 17.0882 60.6507 16.8828 60.6321C16.2705 60.5758 16.4721 61.4267 16.4684 61.8017C16.4684 62.3677 16.4982 62.6938 16.8679 63.0912C17.2077 63.4587 18.0143 63.7474 18.5147 63.9722C18.6453 64.0323 18.9777 64.1821 19.1457 64.1821H19.142Z" fill="#4277D3"/>
<path fill-rule="evenodd" clip-rule="evenodd" d="M55.1562 10.5922C55.3654 10.5922 55.5783 10.4535 55.5783 10.2623C55.5783 10.1273 55.3506 9.48629 55.2983 9.30634C55.0816 8.55659 54.5776 8.43285 53.857 8.21919C53.5244 8.12171 52.4753 7.60436 52.5685 8.27915C52.5984 8.48535 52.6321 8.67655 52.6693 8.8715C52.7814 9.43007 52.703 9.52003 53.1213 9.83494C53.2595 9.93992 53.3902 10.0074 53.5805 10.0674C53.7672 10.1273 53.898 10.1836 54.092 10.2473C54.3087 10.3185 54.9959 10.5922 55.1638 10.5922H55.1562Z" fill="#4277D3"/>
<path fill-rule="evenodd" clip-rule="evenodd" d="M58.4608 11.7692C58.9874 11.7692 58.7484 11.2556 58.6661 10.9632C58.5953 10.7008 58.4271 10.2322 58.2778 10.026C58.1061 9.78609 57.811 9.57613 57.5386 9.47118C57.1203 9.30998 56.269 8.9988 55.8769 8.9988C55.4847 8.9988 55.8992 9.85357 55.9515 9.98103C56.3175 10.937 56.3884 11.0344 57.3855 11.4056C57.531 11.4618 58.3676 11.773 58.4608 11.773V11.7692Z" fill="#4277D3"/>
<path fill-rule="evenodd" clip-rule="evenodd" d="M64.6482 70.6378C65.0479 70.7314 65.0775 70.6602 65.5071 70.3529C65.8731 70.0904 65.8655 70.0304 66.1717 69.723L68.0948 67.8223C68.5877 67.3236 68.8268 67.1813 69.3307 66.499C69.4913 66.2814 69.8161 65.9779 69.8161 65.6892C69.708 65.6629 69.4466 65.5693 69.3644 65.5693C69.0769 65.5693 67.9043 67.1624 67.628 67.4773C67.4561 67.6762 67.3628 67.8185 67.195 67.9497C67.1276 68.0022 67.0866 68.0509 67.0268 68.111L64.8759 70.2365C64.7865 70.3491 64.6595 70.4689 64.6444 70.6378H64.6482Z" fill="#4277D3"/>
<path fill-rule="evenodd" clip-rule="evenodd" d="M48.7317 78.9002C49.4784 78.9002 50.2775 78.5252 50.9981 78.2479L52.5852 77.6405C52.7569 77.5693 52.925 77.4719 53.0857 77.3894C53.2535 77.3069 53.3843 77.2243 53.5562 77.1383C54.0378 76.8983 55.5798 76.1334 55.9647 75.8485C56.2709 75.6199 56.7449 75.4286 56.7487 75.1589C56.1477 75.1437 56.1065 74.9189 55.3074 75.4324L54.6501 75.89C53.8586 76.4183 53.84 76.4408 53.0221 76.8496C52.925 76.8983 52.869 76.9394 52.772 76.9919L50.8151 78.0155C50.6287 78.0866 48.9855 78.6979 48.8249 78.7915C48.7427 78.8402 48.7502 78.8326 48.7241 78.9002H48.7317Z" fill="#4277D3"/>
<path fill-rule="evenodd" clip-rule="evenodd" d="M35.9043 79.0501C35.9043 79.2749 37.0806 79.3799 37.286 79.3799C37.6331 79.3799 37.6781 79.2114 38.0737 78.8139C38.1484 78.739 38.1597 78.7127 38.2268 78.634L38.4958 78.2441C38.5666 78.1167 38.6378 78.1167 38.6378 77.993C38.6378 77.723 37.6816 77.618 37.3046 77.5206C37.0917 77.4643 36.9909 77.4419 36.778 77.4795C36.4233 77.5469 36.3824 78.0003 36.1956 78.4016C36.1619 78.4765 36.132 78.5252 36.0948 78.604C36.0649 78.6678 35.9043 79.0014 35.9043 79.0463V79.0501Z" fill="#4277D3"/>
<path fill-rule="evenodd" clip-rule="evenodd" d="M57.7707 7.75804C57.7707 7.88174 58.3235 8.89768 58.4243 9.06264C58.5288 9.23134 58.7417 9.44127 58.8983 9.55374C59.1187 9.70745 59.7833 9.93986 60.0633 10.0411C60.4183 10.1685 60.9635 10.4647 60.5005 9.66245C60.1455 9.04389 59.9924 8.57527 59.3726 8.1704C59.1786 8.04294 58.0769 7.6418 57.9162 7.6418C57.8454 7.6418 57.7669 7.67931 57.7669 7.76177L57.7707 7.75804Z" fill="#4277D3"/>
<path fill-rule="evenodd" clip-rule="evenodd" d="M60.3849 8.78523C60.3849 8.9127 60.5569 9.1601 60.6167 9.27633C60.822 9.6812 61.1877 10.2435 61.5389 10.5209C61.8973 10.8021 62.521 10.9896 63.0214 11.207C63.1033 11.2445 63.2117 11.2969 63.2791 11.3157C63.4135 11.3569 63.4135 11.3232 63.5106 11.2595C63.4954 11.0908 63.3499 10.9221 63.2715 10.8059L62.5433 9.78618C62.2148 9.41878 62.0356 9.25382 61.5351 9.05138C61.2661 8.94267 60.3887 8.44781 60.3887 8.78523H60.3849Z" fill="#4277D3"/>
<path fill-rule="evenodd" clip-rule="evenodd" d="M55.7285 76.6697C55.818 76.6922 55.7732 76.6659 55.818 76.7298L56.9493 76.1787C57.7745 75.7625 58.9584 75.1889 59.7238 74.6827C59.8135 74.6229 59.8731 74.5704 59.9742 74.5104L62.5543 72.7858C62.6589 72.7108 64.2085 71.4887 64.1115 71.3875C64.0702 71.3464 63.8425 71.3274 63.7679 71.3464C63.5887 71.3913 63.1143 71.7363 62.9764 71.8485C62.8158 71.9798 62.6665 72.0885 62.5096 72.2274C62.3528 72.3696 62.1921 72.4784 62.0315 72.621L61.0832 73.3856L57.995 75.4438C57.8268 75.5564 57.618 75.6424 57.4422 75.7325C57.2444 75.8337 57.069 75.9349 56.8709 76.0323C56.6583 76.1372 55.8665 76.5723 55.7285 76.6059V76.6697Z" fill="#4277D3"/>
<path fill-rule="evenodd" clip-rule="evenodd" d="M47.6183 78.8402C48.2491 78.8402 48.0813 78.979 48.8803 78.6602C49.1005 78.5704 49.3282 78.4803 49.5449 78.394C49.9408 78.2365 50.5159 78.0566 50.8706 77.858C51.0721 77.7417 51.2627 77.618 51.4605 77.5168C51.6772 77.4043 52.577 76.9284 52.6517 76.8345C52.7676 76.6846 52.5099 76.7447 52.3679 76.7295C51.4381 76.6359 51.0872 76.9357 50.2208 77.4194L49.2202 78.0117C48.8091 78.2555 48.5666 78.3567 48.126 78.5404C47.9131 78.6264 47.6592 78.6941 47.6183 78.8477V78.8402Z" fill="#4277D3"/>
<path fill-rule="evenodd" clip-rule="evenodd" d="M43.2334 79.6838C43.2706 79.8485 43.3191 79.8337 43.5021 79.8337C43.7036 79.8337 45.8772 79.305 46.1421 79.1965C46.258 79.1475 46.3811 79.1213 46.4148 78.9904L45.515 78.9303C45.1937 78.9303 44.6784 79.2338 44.4356 79.354C44.2976 79.4213 44.0324 79.4887 43.8643 79.5339C43.7298 79.5712 43.3603 79.68 43.2334 79.6838Z" fill="#4277D3"/>
<path fill-rule="evenodd" clip-rule="evenodd" d="M45.0038 79.7439V79.7739C45.1531 79.7739 45.321 79.7926 45.366 79.6838C45.2652 79.7325 45.1569 79.7439 45.0038 79.7439Z" fill="#4277D3"/>
<path fill-rule="evenodd" clip-rule="evenodd" d="M50.2621 78.6903V78.7203C50.4151 78.7203 50.3518 78.7428 50.4113 78.6602C50.3443 78.6754 50.3405 78.6903 50.2621 78.6903Z" fill="#4277D3"/>
<path fill-rule="evenodd" clip-rule="evenodd" d="M59.0624 75.2221C59.0624 75.2961 59.1106 75.2294 59.0809 75.2221C59.0809 75.2221 59.0624 75.1368 59.0624 75.2221Z" fill="#4277D3"/>
<path fill-rule="evenodd" clip-rule="evenodd" d="M72.2513 63.5785L72.2592 63.5864C72.2592 63.5864 72.2513 63.5747 72.2513 63.5785Z" fill="#4277D3"/>
<path fill-rule="evenodd" clip-rule="evenodd" d="M72.281 63.5488L72.2888 63.5564C72.2888 63.5564 72.281 63.5447 72.281 63.5488Z" fill="#4277D3"/>
<path fill-rule="evenodd" clip-rule="evenodd" d="M72.3112 63.5491C72.3112 63.5491 72.3191 63.5333 72.3191 63.5412C72.3191 63.5412 72.3074 63.5491 72.3112 63.5491Z" fill="#4277D3"/>
<path fill-rule="evenodd" clip-rule="evenodd" d="M65.0715 71.2114L65.0791 71.2193C65.0791 71.2193 65.0715 71.2076 65.0715 71.2114Z" fill="#4277D3"/>
<path fill-rule="evenodd" clip-rule="evenodd" d="M65.1005 71.2117C65.1005 71.2117 65.1083 71.1959 65.1083 71.2038C65.1083 71.2038 65.0964 71.2117 65.1005 71.2117Z" fill="#4277D3"/>
<path fill-rule="evenodd" clip-rule="evenodd" d="M64.9213 71.3312L64.9291 71.3388C64.9291 71.3388 64.9213 71.3271 64.9213 71.3312Z" fill="#4277D3"/>
<path fill-rule="evenodd" clip-rule="evenodd" d="M64.9515 71.3315L64.9594 71.324C64.9594 71.324 64.9477 71.3315 64.9515 71.3315Z" fill="#4277D3"/>
<path fill-rule="evenodd" clip-rule="evenodd" d="M50.9518 78.5369C50.9518 78.5369 50.9597 78.5211 50.9597 78.529C50.9597 78.529 50.948 78.5369 50.9518 78.5369Z" fill="#4277D3"/>
<path fill-rule="evenodd" clip-rule="evenodd" d="M64.7695 71.4817C64.7695 71.4817 64.7773 71.4659 64.7773 71.4738C64.7773 71.4738 64.7657 71.4817 64.7695 71.4817Z" fill="#4277D3"/>
<path fill-rule="evenodd" clip-rule="evenodd" d="M56.5991 76.5164L56.6066 76.5085C56.6066 76.5085 56.595 76.5164 56.5991 76.5164Z" fill="#4277D3"/>
<path fill-rule="evenodd" clip-rule="evenodd" d="M59.7534 74.8892L59.7613 74.8813C59.7613 74.8813 59.7496 74.8892 59.7534 74.8892Z" fill="#4277D3"/>
<path fill-rule="evenodd" clip-rule="evenodd" d="M72.3408 63.489L72.3487 63.4811C72.3487 63.4811 72.337 63.489 72.3408 63.489Z" fill="#4277D3"/>
<path fill-rule="evenodd" clip-rule="evenodd" d="M27.5512 78.0569L27.559 78.049C27.559 78.049 27.5474 78.0569 27.5512 78.0569Z" fill="#4277D3"/>
<path fill-rule="evenodd" clip-rule="evenodd" d="M50.4413 78.6906L50.4488 78.6827C50.4488 78.6827 50.4372 78.6906 50.4413 78.6906Z" fill="#4277D3"/>
<mask id="mask0_2001_1315" style="mask-type:luminance" maskUnits="userSpaceOnUse" x="33" y="36" width="41" height="37">
<path d="M57.2658 72.3434C58.0539 72.3434 58.7408 72.0999 59.3682 71.68C59.4951 71.5937 59.6148 71.5187 59.7455 71.4251C60.3653 70.9752 60.8507 70.4168 61.3883 69.8767C61.6126 69.6519 61.8104 69.4533 62.0343 69.2281L62.6318 68.561C62.908 68.2087 63.1808 67.8074 63.4907 67.4963C63.5468 67.44 63.5877 67.4062 63.6438 67.3464L63.9165 66.9866C63.9761 66.9189 64.0098 66.874 64.0658 66.8063C64.7118 66.0341 64.9282 65.753 65.4699 64.9881C65.6416 64.7447 65.8208 64.5047 65.9924 64.246C66.4145 63.6051 66.8775 63.0014 67.2957 62.3567C67.5235 62.0079 67.4079 62.289 67.8261 61.5918C68.1509 61.052 68.4309 60.486 68.7559 59.9611L69.6857 58.3304C69.8463 58.0417 69.9918 57.7942 70.115 57.4944C70.1824 57.3331 70.2419 57.187 70.3165 57.033C70.4624 56.7447 70.5893 56.4632 70.7272 56.1783L71.9446 53.5431C72.0718 53.2281 72.1688 52.9281 72.2882 52.6207C72.348 52.4708 72.4113 52.3058 72.4636 52.1635C72.725 51.4587 73.543 49.3929 73.6586 48.8683C73.8939 47.7847 73.9575 46.4689 73.2255 45.5579C72.8296 45.0669 72.2098 44.9281 71.6573 44.6881L71.0113 44.4408C71.0113 44.4408 70.9776 44.4256 70.9701 44.4221L69.835 43.9908C69.835 43.9908 69.8202 43.987 69.8126 43.9832L60.914 40.8455C59.6932 40.437 58.5055 40.0395 57.2734 39.6459C56.0485 39.256 54.835 38.8212 53.5953 38.4538L48.0838 36.6618C47.3257 36.418 46.8627 36.2119 46.0674 36.2119C45.6939 36.2119 45.3729 36.2609 45.074 36.332C44.417 36.4933 43.909 36.7706 43.405 37.1905C43.3528 37.2316 43.3676 37.224 43.3266 37.2655L43.252 37.3404C42.6394 37.9551 42.4079 38.7874 42.1427 39.6047C42.0904 39.766 42.0457 39.8634 41.9934 40.0285L41.4072 41.7002C41.131 42.5477 40.8022 43.361 40.5222 44.2194C40.2907 44.9243 40.0145 45.6028 39.7716 46.3001L39.1294 48.0996C39.1294 48.0996 39.1257 48.1148 39.1219 48.1221C39.1219 48.1296 39.1181 48.1372 39.1143 48.1445L38.7187 49.2243C38.308 50.2966 37.9083 51.4735 37.5313 52.5572L34.5253 61.1532C34.5102 61.2168 34.4879 61.2768 34.4617 61.3556L33.9055 63.0615C33.8567 63.2 33.8044 63.3499 33.7521 63.4811C33.5172 64.0737 33.5543 64.6846 33.7934 65.2806C33.8343 65.3856 33.8343 65.3745 33.8794 65.4644C33.9726 65.6519 34.0995 65.8204 34.2264 65.9892L35.6866 67.0577C36.1011 67.2376 38.5282 67.9162 38.9502 68.036L46.9449 70.203C47.8822 70.4392 48.8044 70.6077 49.7493 70.8253C50.9739 71.1064 52.2548 71.3388 53.4608 71.6199C54.0882 71.7701 54.7231 71.8675 55.3465 71.9911C55.7537 72.0737 56.8664 72.351 57.2696 72.351" fill="white"/>
</mask>
<g mask="url(#mask0_2001_1315)">
<path d="M73.954 36.2157H33.5137V72.3434H73.954V36.2157Z" fill="url(#paint0_linear_2001_1315)"/>
</g>
<path fill-rule="evenodd" clip-rule="evenodd" d="M49.955 7.15089L51.8891 7.71323L51.8816 7.70947L51.9153 7.5895C51.7436 7.50704 51.6277 7.30084 51.5717 6.96721L50.7389 2.29986C50.7203 2.18739 50.7203 2.09367 50.7389 2.02244C50.7688 1.91373 50.8696 1.86124 51.034 1.87249L51.0715 1.74503L49.2044 1.20144L49.1669 1.3289C49.2976 1.41888 49.3461 1.52384 49.3128 1.64381C49.2901 1.72628 49.2305 1.82001 49.1332 1.92872L46.0265 5.4339C45.84 5.64009 45.6608 5.73758 45.485 5.72632L45.4517 5.84629L47.1991 6.35238L47.2328 6.23241C47.0721 6.13119 47.0088 6.02998 47.0384 5.92126C47.0573 5.86128 47.1058 5.78254 47.1842 5.69258L47.7556 5.04778L50.1565 5.74507L50.2948 6.59981C50.3172 6.71978 50.3209 6.80601 50.3058 6.86223C50.2687 6.98969 50.1641 7.04218 49.9883 7.03092L49.955 7.15089ZM49.7235 2.81335L50.0258 4.91646L48.3121 4.42163L49.7087 2.80961L49.7235 2.81335Z" fill="#1E3459"/>
<path d="M45.6901 5.95851L43.9874 5.82732L43.9984 5.70359C44.1739 5.66612 44.2674 5.57239 44.2784 5.43368L44.4277 3.4468L41.2614 3.20686L41.1121 5.19377C41.1008 5.33622 41.1792 5.43744 41.3471 5.50492L41.3361 5.62862L39.6406 5.50115L39.652 5.37745C39.8236 5.33246 39.9134 5.2425 39.9244 5.10754L40.2756 0.45144C40.2866 0.305235 40.212 0.200267 40.0479 0.140285L40.0589 0.00532624L41.7543 0.132788L41.743 0.267747C41.5676 0.301487 41.4743 0.391459 41.463 0.537666L41.3285 2.30338L44.4951 2.54331L44.6296 0.777593C44.6406 0.627639 44.5622 0.522668 44.3943 0.466437L44.4054 0.331478L46.1083 0.462687L46.097 0.597647C45.9216 0.627639 45.828 0.717612 45.817 0.867566L45.4658 5.52367C45.4548 5.65862 45.5332 5.76357 45.7011 5.83481L45.6901 5.96228V5.95851Z" fill="#1E3459"/>
<path d="M39.5937 0.13272C39.4554 0.162711 39.3509 0.233939 39.2876 0.338909C39.2838 0.353903 39.2391 0.477615 39.1493 0.706295L37.738 4.50014C37.5587 4.98375 37.3307 5.32863 37.0545 5.53483C36.7783 5.74103 36.3824 5.86473 35.8709 5.90596C35.5124 5.93221 35.1726 5.91349 34.8589 5.84974C34.6983 5.80851 34.5376 5.771 34.3773 5.73726C34.1792 5.69603 34.0151 5.67728 33.8844 5.68854C33.7946 5.69603 33.7162 5.73726 33.6491 5.816L33.5294 5.7785L33.9329 4.3502L34.0598 4.38017C34.0784 4.6351 34.2876 4.81881 34.6835 4.92376C34.9783 5.0025 35.2809 5.02874 35.5946 5.0025C35.725 4.99124 35.8894 4.95001 36.0872 4.8788L33.9701 1.09993C33.9105 0.983712 33.8469 0.871247 33.7871 0.758779C33.7162 0.665059 33.6041 0.612575 33.4548 0.601328L33.4438 0.466368L35.389 0.316414L35.4003 0.451373C35.2249 0.49636 35.1427 0.575086 35.1502 0.691301C35.154 0.751282 35.195 0.852502 35.2734 0.998706L36.8154 3.86283L37.9247 0.796268C37.9732 0.665059 37.9956 0.560091 37.988 0.473865C37.9805 0.3614 37.8872 0.293921 37.7118 0.275177L37.7005 0.140217L39.5789 -0.00223923L39.5899 0.13272H39.5937Z" fill="#1E3459"/>
<path fill-rule="evenodd" clip-rule="evenodd" d="M31.994 6.46814C33.3757 6.067 33.9172 5.34346 33.6148 4.29755L33.6186 4.30504C33.3159 3.24784 32.4721 2.9217 31.0905 3.32281L29.0181 3.92266L28.6521 2.65178L31.8746 1.71456C32.0167 1.67333 32.1323 1.72956 32.2255 1.88326L32.3452 1.84952L31.9493 0.473691L31.8299 0.50743C31.8372 0.691124 31.7701 0.803592 31.6246 0.844828L27.0128 2.18317L27.0502 2.31063C27.2219 2.31063 27.3302 2.37811 27.3713 2.52057L28.6633 7.00421C28.7044 7.14292 28.6521 7.25913 28.5028 7.35285L28.5364 7.47282L31.994 6.46814ZM32.005 4.14748C32.2104 4.18498 32.3524 4.34991 32.4384 4.64234V4.63858C32.5203 4.931 32.4869 5.1447 32.3373 5.28338C32.1842 5.4221 31.9417 5.53831 31.6057 5.63579L29.6713 6.1981L29.268 4.79978L31.2023 4.23747C31.5345 4.13998 31.7997 4.11001 32.005 4.14748Z" fill="#1E3459"/>
<path d="M28.3234 7.47282L26.7662 8.17761L26.7139 8.06141C26.8484 7.94144 26.8894 7.81774 26.8297 7.69028L25.5153 4.7699L23.8088 8.7212L23.932 9.00237C23.9918 9.12983 24.1076 9.18232 24.2868 9.15984L24.3391 9.27605L22.7894 9.98084L22.7371 9.8646C22.8641 9.7409 22.9014 9.62093 22.8454 9.49723L20.9298 5.24228C20.8701 5.10729 20.7543 5.05483 20.5825 5.08107L20.5265 4.95734L22.0762 4.25255L22.1322 4.37628C21.994 4.48873 21.9567 4.61619 22.0164 4.74741L23.3271 7.66027L25.0374 3.71649L24.9104 3.43532C24.8469 3.2966 24.7311 3.24411 24.5557 3.27785L24.4996 3.15414L26.0568 2.44936L26.1128 2.57307C25.9709 2.68179 25.9335 2.8055 25.997 2.94421L27.9126 7.19918C27.9686 7.32288 28.0881 7.37537 28.2673 7.35662L28.3196 7.47282H28.3234Z" fill="#1E3459"/>
<path fill-rule="evenodd" clip-rule="evenodd" d="M19.8056 9.3926C20.9781 8.55285 21.247 7.69059 20.6159 6.80212H20.6122C20.25 6.29227 19.8206 6.05609 19.3202 6.0936C18.9244 6.12734 18.4539 6.33726 17.9087 6.72715L15.1193 8.72528L15.1978 8.83399C15.362 8.77404 15.4853 8.80402 15.5712 8.92398L18.2709 12.7253C18.3531 12.8378 18.3381 12.969 18.2336 13.1077L18.3082 13.2089L19.6936 12.2155L19.6227 12.1143C19.4509 12.1705 19.3239 12.1443 19.2418 12.028L18.1888 10.5472L19.8056 9.3926ZM19.0551 7.19175C19.2567 7.16174 19.4434 7.26672 19.6189 7.51415H19.6226C19.7944 7.76155 19.8317 7.97524 19.7309 8.15896C19.6264 8.33888 19.4359 8.53009 19.1559 8.73252L17.6622 9.80095L16.8258 8.62005L18.3194 7.55162C18.607 7.34545 18.8534 7.22549 19.0551 7.19175Z" fill="#1E3459"/>
<path d="M15.4296 9.87238L15.3325 9.9661C15.1794 9.87238 15.0488 9.87987 14.9442 9.98109L13.7231 11.162L16.6171 14.1761C16.7142 14.2773 16.8411 14.2885 16.9979 14.2098L17.0838 14.2998L15.8478 15.4957L15.7619 15.4057C15.8516 15.2483 15.8441 15.117 15.747 15.0158L12.8531 12.0017L11.6283 13.1864C11.5237 13.2876 11.5126 13.4188 11.5984 13.5763L11.5013 13.67L10.5118 12.6391L10.6089 12.5453C10.762 12.6465 10.8927 12.6428 11.001 12.5378L14.3168 9.33255C14.4252 9.22757 14.4326 9.09635 14.3393 8.93891L14.4363 8.84519L15.4259 9.87611L15.4296 9.87238Z" fill="#1E3459"/>
<path fill-rule="evenodd" clip-rule="evenodd" d="M11.7059 20.4701L12.6207 19.0193L12.5162 18.9518C12.378 19.068 12.251 19.0905 12.1315 19.0156L8.19952 16.5226C8.07628 16.4439 8.03895 16.3201 8.09124 16.1477L7.97921 16.0765L6.12336 19.0231C5.48481 20.039 5.37281 20.8075 5.7873 21.3249C5.92173 21.4898 6.09722 21.6435 6.31754 21.7822C7.0793 22.2658 7.79996 22.1309 8.47959 21.3849L9.15918 23.0756C9.27121 23.3418 9.33842 23.5179 9.36456 23.6042C9.40938 23.7466 9.3907 23.8928 9.30481 24.0503L9.40938 24.1178L10.4773 22.4195L10.3728 22.3521C10.2794 22.4608 10.201 22.4945 10.1338 22.4533C10.0964 22.4308 10.033 22.3108 9.93962 22.0971L9.16292 20.2939L9.94708 19.0493L11.493 20.0278C11.6162 20.1065 11.6536 20.2302 11.6013 20.4027L11.7059 20.4701ZM7.96721 17.7936L9.23307 18.5959H9.23681L8.24727 20.1666C7.81785 20.8489 7.38469 21.0514 6.95152 20.7777C6.68642 20.6127 6.57814 20.3841 6.62667 20.0991C6.66028 19.9304 6.77603 19.683 6.97766 19.3644L7.96721 17.7936Z" fill="#1E3459"/>
<path fill-rule="evenodd" clip-rule="evenodd" d="M8.86944 25.3663L9.59389 23.4768L9.59014 23.4843L9.47439 23.4394C9.37729 23.6043 9.16072 23.7018 8.82466 23.728L4.11968 24.1629C4.0039 24.1741 3.91055 24.1666 3.84333 24.1404C3.7388 24.0992 3.69773 23.9942 3.72012 23.8292L3.59691 23.7805L2.89861 25.6024L3.02184 25.6512C3.12266 25.5275 3.23096 25.4862 3.3467 25.5312C3.42513 25.5612 3.51102 25.6287 3.61184 25.7337L6.82318 29.1451C7.01735 29.3476 7.09574 29.535 7.0696 29.7112L7.18538 29.7562L7.83883 28.0505L7.72308 28.0055C7.61105 28.1592 7.50277 28.2154 7.3982 28.1742C7.3422 28.1517 7.27124 28.0954 7.18538 28.0092L6.5954 27.3831L7.4953 25.0401L8.35414 24.9764C8.47363 24.9614 8.56327 24.9652 8.61552 24.9876C8.73502 25.0364 8.77984 25.1451 8.7537 25.3213L8.86944 25.3663ZM4.54481 25.2201L6.65833 25.1001L6.01981 26.7721L4.5411 25.2351L4.54481 25.2201Z" fill="#1E3459"/>
<path d="M7.23666 29.4863L6.85581 31.1583L6.73256 31.132C6.72135 30.9521 6.64667 30.8471 6.50853 30.8134L4.57426 30.371L3.8685 33.4789L5.80277 33.9213C5.94094 33.9513 6.05297 33.8912 6.14258 33.7338L6.26579 33.76L5.88866 35.4245L5.76544 35.3983C5.74677 35.2221 5.67209 35.1172 5.53766 35.0871L1.00445 34.0487C0.862552 34.0149 0.75053 34.0749 0.664643 34.2286L0.53395 34.1986L0.911096 32.5341L1.04179 32.5641C1.04926 32.744 1.12394 32.849 1.26584 32.8828L2.98726 33.2765L3.693 30.1686L1.97158 29.775C1.82222 29.7412 1.71019 29.8049 1.63178 29.9624L1.50108 29.9324L1.88196 28.2604L2.01266 28.2904C2.01266 28.4704 2.09107 28.5753 2.2367 28.609L6.76992 29.6475C6.90059 29.6775 7.01637 29.6138 7.10973 29.46L7.23294 29.4863H7.23666Z" fill="#1E3459"/>
<path d="M5.87039 35.6421L5.8405 37.3587H5.71354C5.66875 37.1826 5.5754 37.0928 5.42601 37.0928L3.61499 37.0628L3.58884 38.6858C3.57763 39.3983 3.43574 39.938 3.17061 40.2979C2.90176 40.658 2.48728 40.8342 1.92343 40.8228L0.717311 40.8041C0.571679 40.8041 0.474592 40.8866 0.422315 41.059H0.287888L0.317761 39.342H0.448454C0.489531 39.5181 0.586618 39.6082 0.732246 39.6082L1.93463 39.6269C2.23709 39.6307 2.435 39.5333 2.52462 39.3309C2.61797 39.1282 2.66651 38.8623 2.67025 38.5284L2.69638 37.0476L0.77332 37.0141C0.627692 37.0141 0.530605 37.0966 0.478328 37.2689H0.351367L0.381241 35.5519H0.51567C0.560476 35.7281 0.65383 35.8182 0.803194 35.8182L5.45215 35.8969C5.59404 35.8969 5.69114 35.8144 5.74714 35.6421H5.8741H5.87039Z" fill="#1E3459"/>
<path fill-rule="evenodd" clip-rule="evenodd" d="M5.13111 41.8539C4.53363 41.2952 3.80176 41.0741 2.94291 41.194C2.08033 41.3104 1.42686 41.7189 0.982507 42.4161C0.560551 43.0723 0.411188 43.8406 0.530681 44.7254C0.65017 45.6253 0.989975 46.3336 1.54636 46.8436C2.14381 47.391 2.88317 47.6044 3.7644 47.4846C4.62327 47.3685 5.273 46.9597 5.71735 46.2624C6.12812 45.6063 6.27373 44.8379 6.15423 43.9532C6.03477 43.076 5.69121 42.375 5.13111 41.8539ZM1.78095 43.1396C2.08714 42.7383 2.52777 42.4987 3.09908 42.4199V42.4161C3.64053 42.345 4.11102 42.4648 4.51433 42.7836C4.9176 43.102 5.15659 43.5333 5.23127 44.0806C5.30595 44.6391 5.1902 45.1228 4.88399 45.5314C4.57779 45.9437 4.14837 46.1875 3.59199 46.2624C3.03561 46.3374 2.55764 46.2175 2.15436 45.9064C1.75107 45.5915 1.51209 45.1564 1.43741 44.6017C1.35899 44.0281 1.47475 43.5409 1.78095 43.1396Z" fill="#1E3459"/>
<path d="M2.16643 47.6196L2.20376 47.747C2.05067 47.8409 1.99466 47.957 2.03573 48.0996L2.50623 49.7341L6.51294 48.572C6.64736 48.5306 6.71829 48.4256 6.72204 48.2495L6.84154 48.2156L7.31949 49.8726L7.19999 49.9064C7.10292 49.7565 6.98343 49.7002 6.849 49.7379L2.8423 50.8999L3.31653 52.542C3.3576 52.6843 3.46588 52.7519 3.64513 52.7481L3.68248 52.8756L2.31205 53.273L2.27471 53.1456C2.43528 53.0555 2.49129 52.9394 2.45022 52.793L1.16942 48.3545C1.12834 48.2084 1.01632 48.1407 0.833348 48.1483L0.796007 48.0209L2.16643 47.6234V47.6196Z" fill="#1E3459"/>
<path d="M6.97927 51.5298L7.08381 51.5934C7.0502 51.6835 7.04648 51.7546 7.06888 51.8071C7.07634 51.8223 7.32655 52.0209 7.81943 52.407C8.11817 52.6394 8.36462 52.8942 8.5588 53.1681C8.69694 53.3704 8.83136 53.6177 8.96207 53.9102C9.33921 54.7462 9.42884 55.5374 9.23839 56.2833C9.02554 57.0893 8.51398 57.674 7.69993 58.0452C6.8747 58.4202 6.09801 58.4164 5.36614 58.0414C4.69398 57.6968 4.16749 57.1004 3.78661 56.2533C3.55508 55.7398 3.43187 55.2822 3.41691 54.8737C3.40944 54.7314 3.41319 54.5701 3.42066 54.3864C3.43559 54.2251 3.45051 54.0601 3.46547 53.8915C3.48787 53.6329 3.48787 53.483 3.46547 53.4416C3.44305 53.3891 3.3833 53.348 3.28623 53.3142L3.31609 53.1867L4.67158 53.4081L4.64544 53.539C4.42888 53.6367 4.30192 53.8615 4.26456 54.2141C4.23842 54.4689 4.26456 54.7462 4.32806 55.0498C4.37659 55.2749 4.45502 55.5036 4.55955 55.7398C4.80976 56.2982 5.16821 56.6956 5.62752 56.9243C6.12415 57.1719 6.64318 57.1719 7.18837 56.9243C7.73354 56.677 8.0771 56.2871 8.21899 55.7473C8.35341 55.2411 8.29741 54.7124 8.04721 54.1578C7.96132 53.9665 7.84932 53.7752 7.71114 53.5842C7.54311 53.3556 7.34519 53.1529 7.10995 52.9768C6.80003 52.7481 6.54982 52.677 6.35193 52.7668L6.24365 52.6956L6.97552 51.526L6.97927 51.5298Z" fill="#1E3459"/>
<path fill-rule="evenodd" clip-rule="evenodd" d="M10.2497 57.9703C9.46179 57.7489 8.71124 57.8915 8.00176 58.3902C7.28478 58.8961 6.88897 59.556 6.81429 60.3807C6.73962 61.1605 6.95618 61.914 7.46777 62.6451C7.9868 63.3872 8.61042 63.8596 9.33855 64.0585C10.119 64.2719 10.8733 64.1221 11.6014 63.6085C12.3109 63.1061 12.7067 62.4465 12.7814 61.6215C12.8486 60.8493 12.6283 60.0996 12.1167 59.3685C11.6089 58.6413 10.9853 58.1764 10.2497 57.9703ZM7.85971 60.6583C7.9456 60.1597 8.22938 59.7436 8.6999 59.41V59.4134C9.14425 59.0988 9.61848 58.99 10.1226 59.0874C10.6267 59.181 11.0374 59.4587 11.3511 59.9083C11.6722 60.3659 11.7917 60.8493 11.7059 61.3556C11.6237 61.8615 11.3511 62.2776 10.8918 62.6002C10.4325 62.9224 9.95455 63.0387 9.45417 62.9451C8.95382 62.8512 8.54305 62.5777 8.22192 62.1164C7.8896 61.6443 7.7701 61.1567 7.85971 60.6583Z" fill="#1E3459"/>
<path fill-rule="evenodd" clip-rule="evenodd" d="M12.6856 63.1213C13.4063 62.3564 14.2651 62.4465 15.2621 63.3913L17.9843 65.9779L17.8984 66.068C17.7416 65.9892 17.6146 66.0041 17.5175 66.1053L14.3211 69.4944C14.2203 69.5994 14.2166 69.7306 14.3025 69.8805L14.2091 69.9779L11.5093 67.4138C11.0799 67.0052 10.8148 66.6077 10.714 66.2141C10.6132 65.8204 10.7476 65.4305 11.1173 65.0368C11.487 64.6432 11.9351 64.5347 12.4578 64.7032C12.174 64.111 12.2524 63.5823 12.6856 63.1213ZM13.5217 64.0247C13.3126 64.246 13.2529 64.4784 13.3425 64.7184C13.406 64.887 13.5591 65.0858 13.8018 65.3183L15.288 66.7314L16.3186 65.6405L14.8324 64.2274C14.5897 63.9949 14.3806 63.8523 14.2088 63.7998C13.9624 63.7249 13.7346 63.7998 13.5217 64.0247ZM11.8828 66.3677C11.8156 66.1726 11.8716 65.9817 12.0508 65.7904L12.0471 65.7866C12.2264 65.5991 12.413 65.5355 12.6147 65.588C12.7603 65.6329 12.9321 65.7492 13.13 65.9364L14.661 67.3913L13.7835 68.3247L12.2525 66.8702C12.0508 66.6789 11.9276 66.51 11.8828 66.3677Z" fill="#1E3459"/>
</g>
<defs>
<linearGradient id="paint0_linear_2001_1315" x1="55.8586" y1="29.1602" x2="51.1354" y2="84.5765" gradientUnits="userSpaceOnUse">
<stop stop-color="white"/>
<stop offset="0.01" stop-color="#FAD1D1"/>
<stop offset="0.03" stop-color="#F5A0A0"/>
<stop offset="0.05" stop-color="#F17575"/>
<stop offset="0.07" stop-color="#ED5151"/>
<stop offset="0.09" stop-color="#EB3333"/>
<stop offset="0.11" stop-color="#E81C1C"/>
<stop offset="0.13" stop-color="#E70C0C"/>
<stop offset="0.16" stop-color="#E60303"/>
<stop offset="0.19" stop-color="#E60000"/>
<stop offset="1" stop-color="#820000"/>
</linearGradient>
<clipPath id="clip0_2001_1315">
<rect width="80" height="80" fill="white"/>
</clipPath>
</defs>
</svg>
