<svg width="66" height="80" viewBox="0 0 66 80" fill="none" xmlns="http://www.w3.org/2000/svg">
<path fill-rule="evenodd" clip-rule="evenodd" d="M15.8701 72.7154C17.1835 72.7154 18.2492 73.8971 18.2492 75.3529C18.2492 76.8088 17.1835 77.9905 15.8701 77.9905C14.5568 77.9905 13.4911 76.8088 13.4911 75.3529C13.4911 73.8971 14.5568 72.7154 15.8701 72.7154ZM15.8701 70.7059C18.4868 70.7059 20.6088 72.787 20.6088 75.353C20.6088 77.9189 18.4868 80 15.8701 80C13.2534 80 11.1314 77.9189 11.1314 75.353C11.1314 72.787 13.2534 70.7059 15.8701 70.7059ZM26.9523 72.7154C27.7644 72.7154 28.5282 73.0747 28.9576 73.7637L30.5142 72.2888C29.6456 71.3187 28.3719 70.7059 26.9523 70.7059C24.3357 70.7059 22.2136 72.787 22.2136 75.353C22.2136 77.9189 24.3357 80 26.9523 80C28.4048 80 29.7045 79.3584 30.5738 78.349L28.9563 76.9808C28.5245 77.6479 27.749 77.9905 26.9523 77.9905C25.639 77.9905 24.5733 76.8088 24.5733 75.3529C24.5733 73.8971 25.639 72.7154 26.9523 72.7154ZM42.6161 75.9629H49.4226C49.4483 75.7633 49.4617 75.5597 49.4617 75.353C49.4617 72.787 47.4149 70.7059 44.891 70.7059C42.3672 70.7059 40.3204 72.787 40.3204 75.353C40.3204 77.9189 42.3672 80 44.891 80C46.3304 80 47.9853 79.7587 48.8231 78.701L47.7825 77.2131C47.2605 77.9546 45.8794 78.161 44.9981 78.161C43.8333 78.161 42.8583 77.2199 42.6161 75.9629ZM42.6679 74.5182C42.977 73.3754 43.9037 72.5448 44.9981 72.5448C46.0925 72.5448 47.0193 73.3754 47.3283 74.5182H42.6679ZM31.9482 70.9183H39.2733V72.9121H36.7417V79.7876H34.4798V72.9121H31.9482V70.9183ZM53.2056 75.2152L50.1222 70.9183H52.8461L54.6916 73.6638L56.537 70.9183H59.261L56.1775 75.2152L59.4006 79.7876H56.7683L54.6916 76.8189L52.6148 79.7876H49.9826L53.2056 75.2152ZM54.6916 74.0793L54.681 74.0968L54.6916 74.097L54.7022 74.0968L54.6916 74.0793ZM5.629 69.7533C6.61141 69.7533 7.40807 70.5403 7.40807 71.5108C7.40807 72.4813 6.61141 73.2684 5.629 73.2684H2.6304V69.7533H5.629ZM0.145843 67.6662H6.14043C8.28946 67.6662 10.0322 69.3879 10.0322 71.5108C10.0322 73.6339 8.2894 75.3555 6.14043 75.3555H2.6304V79.7876H0.145843V67.6662Z" fill="black"/>
<path fill-rule="evenodd" clip-rule="evenodd" d="M7.58586 7.49406H27.4204L19.8346 0H0V19.5946L7.58586 27.0886V7.49406ZM31.5159 7.49406H51.3504V27.0886L58.9363 19.5946V0H39.1017L31.5159 7.49406ZM51.3504 31.1344V50.729H31.5159L39.1017 58.2231H58.9363V38.6285L51.3504 31.1344ZM27.4204 50.729H7.58586V31.1344L0 38.6285V58.2231H19.8346L27.4204 50.729Z" fill="black"/>
<path d="M61.0532 0.317076H62.951V0.721279H62.2068V2.96607H61.7975V0.721279H61.0532V0.317076ZM64.6555 2.28921L65.5444 0.317237H66V2.96602H65.5907V1.22555L64.8037 2.96602H64.5072L63.7204 1.22555V2.96602H63.311V0.317237H63.7666L64.6555 2.28921Z" fill="black"/>
</svg>
