<svg width="16" height="12" viewBox="0 0 16 12" fill="none" xmlns="http://www.w3.org/2000/svg">
<path d="M1.2 2.4H14.8C15.1183 2.4 15.4235 2.27357 15.6485 2.04853C15.8736 1.82348 16 1.51826 16 1.2C16 0.88174 15.8736 0.576515 15.6485 0.351472C15.4235 0.126428 15.1183 0 14.8 0H1.2C0.88174 0 0.576516 0.126428 0.351472 0.351472C0.126428 0.576515 0 0.88174 0 1.2C0 1.51826 0.126428 1.82348 0.351472 2.04853C0.576516 2.27357 0.88174 2.4 1.2 2.4ZM14.8 4.8H1.2C0.88174 4.8 0.576516 4.92643 0.351472 5.15147C0.126428 5.37652 0 5.68174 0 6C0 6.31826 0.126428 6.62349 0.351472 6.84853C0.576516 7.07357 0.88174 7.2 1.2 7.2H14.8C15.1183 7.2 15.4235 7.07357 15.6485 6.84853C15.8736 6.62349 16 6.31826 16 6C16 5.68174 15.8736 5.37652 15.6485 5.15147C15.4235 4.92643 15.1183 4.8 14.8 4.8ZM14.8 9.6H1.2C0.88174 9.6 0.576516 9.72643 0.351472 9.95147C0.126428 10.1765 0 10.4817 0 10.8C0 11.1183 0.126428 11.4235 0.351472 11.6485C0.576516 11.8736 0.88174 12 1.2 12H14.8C15.1183 12 15.4235 11.8736 15.6485 11.6485C15.8736 11.4235 16 11.1183 16 10.8C16 10.4817 15.8736 10.1765 15.6485 9.95147C15.4235 9.72643 15.1183 9.6 14.8 9.6Z" fill="#134781"/>
</svg>
