<svg width="32" height="32" viewBox="0 0 32 32" fill="none" xmlns="http://www.w3.org/2000/svg">
<path fill-rule="evenodd" clip-rule="evenodd" d="M15.4998 27.9996L8.2 27.9996C8.08955 27.9996 8 27.9101 8 27.7996L8 18.9997L6 18.9997L6 26.9996C6 27.3504 6 27.6871 6 28C6 29.1045 6.89536 29.9997 7.99989 29.9997L17.9771 30.0003C18.7839 30.0004 19.5567 29.6755 20.1211 29.099L27.4291 21.6344C27.7951 21.2606 28 20.7583 28 20.2352L28 5.00037C28 4.64963 28 4.31296 28 4.0001C28 2.89553 27.1046 2.00037 26 2.00037L8 2.00037C6.89543 2.00037 6 2.89553 6 4.0001C6 4.31296 6 4.64963 6 5.00037L6 6.99992L8 6.99992L8 4.20037C8 4.08991 8.08955 4.00037 8.2 4.00037L25.8 4.00037C25.9105 4.00037 26 4.08991 26 4.20037L26 19.0003C26 19.5526 25.5523 20.0003 25 20.0003L19.9998 20.0003C18.8952 20.0003 17.9998 20.8957 17.9998 22.0003L17.9998 27C17.9998 27.5524 17.5521 28.0002 16.9997 28C16.3685 27.9998 15.6456 27.9996 15.4998 27.9996Z" fill="#393C41"/>
<path d="M7.34447 12.424C7.34447 13.032 7.18447 13.5013 6.86447 13.832C6.5498 14.1573 6.0618 14.32 5.40047 14.32H4.08047V16H2.48047V10.48H5.40047C6.0618 10.48 6.5498 10.6507 6.86447 10.992C7.18447 11.3333 7.34447 11.8107 7.34447 12.424ZM5.70447 12.296C5.70447 12.1573 5.6618 12.04 5.57647 11.944C5.49114 11.848 5.3658 11.8 5.20047 11.8H4.08047V13H5.20047C5.3658 13 5.49114 12.96 5.57647 12.88C5.6618 12.7947 5.70447 12.68 5.70447 12.536V12.296Z" fill="#393C41"/>
<path d="M10.1883 14.64C10.3856 14.64 10.5589 14.6267 10.7083 14.6C10.8576 14.568 10.9829 14.5147 11.0843 14.44C11.1856 14.36 11.2603 14.2533 11.3083 14.12C11.3616 13.9813 11.3883 13.8027 11.3883 13.584V12.88C11.3883 12.48 11.2869 12.208 11.0843 12.064C10.8869 11.9147 10.5883 11.84 10.1883 11.84H9.58828V14.64H10.1883ZM7.98828 16V10.48H10.1883C10.6416 10.48 11.0443 10.5253 11.3963 10.616C11.7483 10.7013 12.0443 10.8507 12.2843 11.064C12.5296 11.2773 12.7136 11.5627 12.8363 11.92C12.9643 12.272 13.0283 12.712 13.0283 13.24C13.0283 13.7733 12.9643 14.2187 12.8363 14.576C12.7136 14.928 12.5296 15.2107 12.2843 15.424C12.0443 15.632 11.7483 15.7813 11.3963 15.872C11.0443 15.9573 10.6416 16 10.1883 16H7.98828Z" fill="#393C41"/>
<path d="M13.7852 16V10.48H17.8172V11.84H15.3852V12.64H17.1532V14H15.3852V16H13.7852Z" fill="#393C41"/>
</svg>
