<svg width="16" height="16" viewBox="0 0 16 16" fill="none" xmlns="http://www.w3.org/2000/svg">
<path d="M15.6211 13.763L11.9426 10.0338C12.5895 8.99157 12.9319 7.78494 12.9304 6.55358C12.9304 2.93393 10.0357 0 6.46505 0C2.89443 0 0 2.93393 0 6.55358C0 10.1734 2.89429 13.107 6.46505 13.107C7.78571 13.1087 9.07491 12.6985 10.1577 11.9321L13.7924 15.6169C13.9125 15.7386 14.055 15.8351 14.2119 15.9008C14.3688 15.9666 14.537 16.0003 14.7068 16C14.8766 16.0003 15.0449 15.9666 15.2018 15.9009C15.3588 15.8351 15.5014 15.7386 15.6215 15.6169C15.8639 15.3709 16.0001 15.0375 16 14.6898C15.9999 14.3422 15.8636 14.0088 15.6211 13.763ZM6.46505 10.9838C4.05163 10.9838 2.09498 9.00046 2.09498 6.55386C2.09498 4.10725 4.05163 2.12381 6.46505 2.12381C8.8786 2.12381 10.8351 4.10725 10.8351 6.55386C10.8351 9.00046 8.8786 10.9838 6.46505 10.9838Z" fill="#134781"/>
</svg>
