<svg width="261" height="11" viewBox="0 0 261 11" fill="none" xmlns="http://www.w3.org/2000/svg">
<path fill-rule="evenodd" clip-rule="evenodd" d="M10.5166 4.33656C10.5166 4.85422 10.4522 5.33703 10.3234 5.78498C10.1947 6.23467 9.97542 6.62684 9.6657 6.9615C9.35424 7.29789 8.9349 7.56457 8.4042 7.76153C7.8735 7.95849 7.20534 8.05435 6.40146 8.05435H5.96994C5.41314 8.05435 4.87026 8.04912 4.33956 8.03866C3.80712 8.02995 3.2886 7.98289 2.784 7.90097V10.688H0V0.308509C0.8874 0.205673 1.81656 0.128981 2.79096 0.0766915C3.76536 0.0244018 4.72236 0 5.66022 0H6.09348C6.95826 0 7.67688 0.0976074 8.24238 0.294565C8.80962 0.491523 9.26376 0.756457 9.6048 1.09285C9.94584 1.42925 10.1825 1.82317 10.3165 2.27809C10.4504 2.73301 10.5183 3.21233 10.5183 3.71779L10.5166 4.33656ZM5.53668 5.57582C6.08304 5.57582 6.50586 5.53573 6.80514 5.45904C7.10442 5.38061 7.32366 5.27428 7.46286 5.1331C7.60206 4.99366 7.6821 4.82982 7.70298 4.64506C7.72386 4.45856 7.7343 4.25115 7.7343 4.02456C7.7343 3.79797 7.72386 3.58881 7.70298 3.39708C7.6821 3.20536 7.60554 3.04326 7.47156 2.90905C7.33584 2.77832 7.12878 2.672 6.85038 2.59531C6.57198 2.51862 6.17004 2.47853 5.64456 2.47853C5.3157 2.47853 4.88418 2.48899 4.35348 2.5099C3.82278 2.53082 3.29904 2.56568 2.784 2.61797V5.43812C3.26946 5.49913 3.72708 5.53747 4.16034 5.55316C4.5936 5.56885 5.05122 5.57582 5.53668 5.57582ZM25.2074 10.688L23.135 7.43385C22.5782 7.43385 22.0423 7.42862 21.5255 7.4199C21.0105 7.4077 20.5042 7.36238 20.01 7.28046V10.688H17.2277V0.308509C18.1151 0.205673 19.0443 0.128981 20.0187 0.0766915C20.9931 0.0244018 21.9501 0 22.888 0H23.3212C24.1877 0 24.9046 0.0906354 25.4701 0.270163C26.0391 0.453177 26.4915 0.697195 26.8308 1.00745C27.1701 1.3177 27.4085 1.6785 27.5425 2.09159C27.6764 2.50467 27.7426 2.94391 27.7426 3.40929V4.02805C27.7426 4.67818 27.6138 5.2708 27.3563 5.80241C27.0988 6.33402 26.6394 6.74362 25.9799 7.03296L27.8974 10.071V10.6897L25.2074 10.688ZM22.9175 2.47853C22.5574 2.47853 22.1119 2.48899 21.5795 2.5099C21.0488 2.53082 20.525 2.56742 20.01 2.61797V4.81762C20.4937 4.87862 20.9531 4.91871 21.3863 4.9344C21.8196 4.95009 22.1693 4.95706 22.4373 4.95706C23.0567 4.95706 23.5352 4.92917 23.8763 4.87165C24.2156 4.81588 24.4661 4.72873 24.6262 4.61543C24.7863 4.50388 24.882 4.35921 24.9133 4.18317C24.9446 4.00887 24.9603 3.79623 24.9603 3.54872C24.9603 3.41451 24.9499 3.28379 24.929 3.15307C24.9081 3.02409 24.8333 2.9073 24.7045 2.80447C24.5758 2.70163 24.3722 2.62145 24.0938 2.56394C23.8154 2.50642 23.4239 2.47853 22.9175 2.47853ZM34.4085 5.0965C34.4085 4.39407 34.4955 3.73348 34.6712 3.11298C34.847 2.49422 35.1532 1.95389 35.5917 1.49374C36.0302 1.03359 36.62 0.671051 37.363 0.40263C38.106 0.13421 39.0386 0 40.1627 0H40.7195C41.8435 0 42.7762 0.13421 43.5191 0.40263C44.2604 0.671051 44.852 1.03359 45.2905 1.49374C45.7289 1.95389 46.0352 2.49247 46.2109 3.11298C46.3867 3.73348 46.4737 4.39407 46.4737 5.0965V5.90176C46.4737 6.60244 46.3867 7.26478 46.2109 7.88528C46.0352 8.50578 45.7272 9.04611 45.2905 9.50452C44.852 9.96467 44.2621 10.3289 43.5191 10.5974C42.7762 10.8658 41.8435 11 40.7195 11H40.1627C39.0386 11 38.106 10.8658 37.363 10.5974C36.6218 10.3289 36.0302 9.96467 35.5917 9.50452C35.1532 9.04611 34.847 8.50578 34.6712 7.88528C34.4955 7.26478 34.4085 6.60418 34.4085 5.90176V5.0965ZM37.1925 5.49913C37.1925 5.8913 37.2099 6.26953 37.2464 6.6373C37.283 7.00333 37.4013 7.32578 37.6014 7.60466C37.8032 7.88528 38.1217 8.10664 38.5601 8.27222C38.9986 8.43955 39.625 8.52147 40.4393 8.52147C41.2537 8.52147 41.8801 8.43955 42.3185 8.27222C42.757 8.10664 43.0772 7.88528 43.279 7.60466C43.4791 7.32578 43.5992 7.00333 43.634 6.6373C43.6688 6.27127 43.6879 5.8913 43.6879 5.49913C43.6879 5.10696 43.6705 4.72873 43.634 4.36793C43.5974 4.00539 43.4791 3.68642 43.2773 3.40754C43.0772 3.12866 42.757 2.9073 42.3185 2.74172C41.8801 2.57614 41.2537 2.49422 40.4393 2.49422C39.625 2.49422 38.9986 2.57614 38.5601 2.74172C38.1217 2.90556 37.8032 3.12866 37.6014 3.40754C37.4013 3.68642 37.2812 4.00539 37.2447 4.36793C37.2116 4.72873 37.1925 5.10696 37.1925 5.49913ZM64.38 5.48344V10.5032C63.6475 10.6584 62.8958 10.7804 62.1232 10.8675C61.3507 10.9547 60.5659 10.9983 59.7725 10.9983H59.2157C58.0307 10.9983 57.0476 10.8658 56.2699 10.5956C55.4921 10.3272 54.8709 9.96292 54.4063 9.50277C53.9417 9.04437 53.6181 8.50404 53.4319 7.88354C53.2457 7.26303 53.1518 6.60244 53.1518 5.90002V5.0965C53.1518 4.39407 53.244 3.73348 53.4302 3.11298C53.6164 2.49422 53.94 1.95389 54.4046 1.49374C54.8692 1.03359 55.4903 0.671051 56.2681 0.40263C57.0476 0.13421 58.029 0 59.2139 0H59.7707C60.512 0 61.2445 0.0435747 61.9666 0.132467C62.6887 0.219617 63.3899 0.346855 64.0703 0.512439V3.03803C63.3064 2.83061 62.5304 2.6842 61.7422 2.59531C60.9539 2.50816 60.2701 2.46284 59.6924 2.46284C58.765 2.46284 58.0499 2.53779 57.5505 2.68769C57.0511 2.83759 56.684 3.04674 56.4508 3.31516C56.2194 3.58358 56.0854 3.90429 56.0489 4.27555C56.0123 4.64855 55.9949 5.05467 55.9949 5.49913C55.9949 5.94359 56.0141 6.35145 56.0489 6.72271C56.0854 7.09396 56.2194 7.41816 56.4508 7.69181C56.684 7.96546 57.0494 8.17636 57.5488 8.32626C58.0481 8.47615 58.7633 8.5511 59.6907 8.5511C60.2475 8.5511 60.8809 8.51973 61.5925 8.45698V5.48344H64.38ZM79.351 10.688L77.2786 7.43385C76.7218 7.43385 76.1859 7.42862 75.6691 7.4199C75.1523 7.4077 74.6477 7.36238 74.1536 7.28046V10.688H71.3696V0.308509C72.257 0.205673 73.1861 0.128981 74.1605 0.0766915C75.1367 0.0244018 76.0919 0 77.0298 0H77.4631C78.3296 0 79.0465 0.0906354 79.612 0.270163C80.1792 0.453177 80.6333 0.697195 80.9726 1.00745C81.3137 1.3177 81.5503 1.6785 81.6843 2.09159C81.8183 2.50467 81.8861 2.94391 81.8861 3.40929V4.0263C81.8861 4.67644 81.7574 5.26905 81.4999 5.80067C81.2423 6.33053 80.783 6.74188 80.1218 7.03122L82.041 10.0692V10.688H79.351ZM77.0611 2.47853C76.6992 2.47853 76.2538 2.48899 75.7231 2.5099C75.1924 2.53082 74.6686 2.56742 74.1536 2.61797V4.81762C74.6373 4.87862 75.0967 4.91871 75.5299 4.9344C75.9632 4.95009 76.3147 4.95706 76.5826 4.95706C77.2021 4.95706 77.6806 4.92917 78.0216 4.87165C78.3626 4.81588 78.6115 4.72873 78.7715 4.61543C78.9316 4.50214 79.0273 4.35747 79.0569 4.18143C79.0882 4.00713 79.1021 3.79449 79.1021 3.54698C79.1021 3.41277 79.0917 3.28205 79.0708 3.15132C79.0499 3.02234 78.9769 2.90556 78.8464 2.80273C78.7176 2.69989 78.514 2.61971 78.2356 2.56219C77.959 2.50642 77.5675 2.47853 77.0611 2.47853ZM98.8059 2.78878H91.6771V4.15528H97.5496V6.63207H91.6771V8.20948H98.8059V10.688H88.8914V0.308509H98.8059V2.78878ZM110.589 8.51973C111.144 8.51973 111.581 8.49184 111.896 8.43432C112.209 8.3768 112.448 8.30534 112.608 8.21819C112.768 8.1293 112.867 8.03169 112.909 7.92363C112.95 7.81556 112.971 7.71447 112.971 7.62035C112.971 7.43559 112.928 7.28743 112.839 7.17937C112.752 7.06956 112.613 6.9859 112.421 6.92315C112.23 6.8604 111.978 6.81683 111.663 6.79243C111.35 6.76628 110.97 6.74885 110.527 6.73839C110.269 6.72794 109.965 6.71225 109.613 6.69133C109.263 6.67042 108.901 6.62684 108.531 6.56061C108.16 6.49263 107.793 6.39502 107.433 6.26604C107.073 6.13706 106.749 5.95579 106.467 5.72572C106.184 5.4939 105.954 5.20282 105.78 4.85074C105.604 4.49865 105.517 4.07162 105.517 3.56441V3.36397C105.517 2.91951 105.595 2.49422 105.757 2.08461C105.917 1.67675 106.192 1.3177 106.577 1.00745C106.963 0.698938 107.483 0.453177 108.139 0.270163C108.792 0.0906354 109.61 0 110.591 0H111.146C111.858 0 112.548 0.0435747 113.218 0.132467C113.888 0.219617 114.544 0.346855 115.183 0.512439V3.06766C114.429 2.89162 113.685 2.75218 112.947 2.64934C112.209 2.54651 111.459 2.49422 110.697 2.49422C110.142 2.49422 109.704 2.5221 109.383 2.57962C109.063 2.63714 108.825 2.7086 108.665 2.79575C108.505 2.8829 108.404 2.97702 108.364 3.07463C108.322 3.17224 108.301 3.2681 108.301 3.36222C108.301 3.54698 108.345 3.69862 108.433 3.81017C108.522 3.92347 108.663 4.01236 108.858 4.07336C109.055 4.13437 109.307 4.17969 109.617 4.20583C109.926 4.23198 110.299 4.24941 110.73 4.25986C110.977 4.27206 111.271 4.28252 111.612 4.29821C111.952 4.3139 112.31 4.35573 112.686 4.42196C113.062 4.4882 113.432 4.58929 113.799 4.7235C114.167 4.85771 114.494 5.04072 114.783 5.27428C115.071 5.5061 115.305 5.80067 115.486 6.15624C115.667 6.51355 115.757 6.94407 115.757 7.44953V7.65172C115.757 8.09618 115.677 8.51798 115.517 8.92236C115.357 9.32499 115.082 9.68056 114.689 9.99081C114.297 10.3011 113.777 10.5468 113.126 10.7264C112.477 10.9076 111.656 10.9983 110.666 10.9983H110.111C109.295 10.9983 108.505 10.9547 107.736 10.8675C106.968 10.7804 106.213 10.6584 105.47 10.5032V7.90097C106.305 8.08572 107.17 8.23736 108.061 8.34892C108.954 8.46395 109.796 8.51973 110.589 8.51973ZM127.554 8.51973C128.109 8.51973 128.546 8.49184 128.861 8.43432C129.174 8.3768 129.413 8.30534 129.573 8.21819C129.733 8.1293 129.832 8.03169 129.874 7.92363C129.915 7.81556 129.936 7.71447 129.936 7.62035C129.936 7.43559 129.893 7.28743 129.804 7.17937C129.717 7.06956 129.578 6.9859 129.386 6.92315C129.195 6.8604 128.943 6.81683 128.628 6.79243C128.313 6.76628 127.933 6.74885 127.49 6.73839C127.232 6.72794 126.928 6.71225 126.578 6.69133C126.227 6.67042 125.866 6.62684 125.494 6.56061C125.123 6.49263 124.756 6.39502 124.396 6.26604C124.036 6.13706 123.714 5.95579 123.43 5.72572C123.147 5.4939 122.917 5.20282 122.743 4.85074C122.569 4.49865 122.482 4.06988 122.482 3.56441V3.36222C122.482 2.91776 122.56 2.49247 122.722 2.08287C122.882 1.67501 123.155 1.31596 123.542 1.0057C123.928 0.697195 124.448 0.451434 125.104 0.26842C125.759 0.0906354 126.576 0 127.556 0H128.113C128.824 0 129.515 0.0435747 130.185 0.132467C130.855 0.219617 131.511 0.346855 132.15 0.512439V3.06766C131.396 2.89162 130.651 2.75218 129.915 2.64934C129.178 2.54651 128.428 2.49422 127.664 2.49422C127.109 2.49422 126.67 2.5221 126.35 2.57962C126.03 2.63714 125.792 2.7086 125.631 2.79575C125.471 2.8829 125.37 2.97702 125.33 3.07463C125.289 3.17224 125.268 3.2681 125.268 3.36222C125.268 3.54698 125.311 3.69862 125.4 3.81017C125.489 3.92347 125.63 4.01236 125.826 4.07336C126.021 4.13437 126.275 4.17969 126.583 4.20583C126.893 4.23198 127.265 4.24941 127.697 4.25986C127.944 4.27206 128.238 4.28252 128.579 4.29821C128.918 4.3139 129.277 4.35573 129.654 4.42196C130.03 4.4882 130.401 4.58929 130.768 4.7235C131.133 4.85771 131.462 5.04072 131.749 5.27428C132.036 5.5061 132.273 5.80067 132.452 6.15624C132.633 6.51355 132.724 6.94407 132.724 7.44953V7.65172C132.724 8.09618 132.644 8.51798 132.484 8.92236C132.324 9.32499 132.049 9.68056 131.657 9.99081C131.266 10.3011 130.745 10.5468 130.095 10.7264C129.44 10.9076 128.621 10.9983 127.632 10.9983H127.077C126.261 10.9983 125.471 10.9547 124.702 10.8675C123.935 10.7804 123.18 10.6584 122.437 10.5032V7.90097C123.272 8.08572 124.135 8.23736 125.026 8.34892C125.919 8.46395 126.761 8.51973 127.554 8.51973Z" fill="#181B21"/>
<path fill-rule="evenodd" clip-rule="evenodd" d="M153.708 2.97528L152.361 9.37902H154.47C155.342 9.37902 155.737 9.34242 156.167 9.20821C157.693 8.73237 158.545 7.09396 158.545 5.56536C158.545 4.43242 158.051 3.56964 157.216 3.20013C156.776 3.01188 156.443 2.97528 155.304 2.97528H153.708ZM154.634 3.91127H155.558C156.007 3.91127 156.195 3.9287 156.438 3.99319C157.174 4.19014 157.426 4.91 157.426 5.61242C157.426 6.56584 156.995 7.53668 156.376 8.01426C155.981 8.31928 155.586 8.44652 154.921 8.44652H153.673L154.634 3.91127ZM173.81 2.97528H172.688L171.333 9.37902H172.464L173.81 2.97528ZM192.674 5.96102H189.926L189.738 6.8238H191.497C191.236 7.85739 190.69 8.63999 189.477 8.63999C188.4 8.63999 187.781 7.96546 187.781 6.7872C187.781 5.33877 188.553 3.77531 190.196 3.77531C191.094 3.77531 191.633 4.19712 191.687 5.01632H192.773C192.773 3.50515 191.579 2.84979 190.232 2.84979C187.951 2.84979 186.669 4.63112 186.669 6.77151C186.669 7.64475 186.893 8.30011 187.351 8.79512C187.826 9.29884 188.445 9.54112 189.281 9.54112C190.133 9.54112 190.735 9.28839 191.229 8.7132L191.238 9.37902H191.957L192.674 5.96102ZM208.081 2.97528H206.959L205.604 9.37902H206.735L208.081 2.97528ZM226.532 2.97528H221.271L221.072 3.90255H223.164L222.015 9.37902H223.138L224.286 3.90255H226.332L226.532 2.97528ZM242.236 2.97528H241.042L237.218 9.37902H238.439L239.417 7.68832H241.949L242.21 9.37902H243.349L242.236 2.97528ZM241.435 4.02805C241.472 4.53177 241.561 5.02678 241.634 5.52004L241.83 6.83251H239.882L240.492 5.76232C240.816 5.19759 241.14 4.61195 241.435 4.02805ZM258.9 2.97528H257.778L256.413 9.37902H260.803L261 8.42561H257.741L258.9 2.97528Z" fill="#181B21"/>
</svg>
